<?xml version="1.0" encoding="UTF-8"?>
<svg width="24px" height="24px" viewBox="0 0 24 24" version="1.1" xmlns="http://www.w3.org/2000/svg">
    <title>SafeZone Shield</title>
    <g stroke="none" stroke-width="1" fill="none" fill-rule="evenodd">
        <path d="M12,2 L3,7 L3,12 C3,16.97 7.03,22 12,22 C16.97,22 21,16.97 21,12 L21,7 L12,2 Z" fill="#9333EA" fill-rule="nonzero"/>
        <path d="M12,4.3 L5,8.1 L5,12 C5,15.97 8.03,19.9 12,19.9 C15.97,19.9 19,15.97 19,12 L19,8.1 L12,4.3 Z" fill="#FFFFFF" fill-rule="nonzero"/>
        <path d="M12,6.6 L7,9.4 L7,12 C7,14.97 9.03,17.8 12,17.8 C14.97,17.8 17,14.97 17,12 L17,9.4 L12,6.6 Z" fill="#9333EA" fill-rule="nonzero"/>
    </g>
</svg> 